<svg xmlns="http://www.w3.org/2000/svg" viewBox="0 -0.5 18 18" shape-rendering="crispEdges">
<metadata>Made with Pixels to Svg https://codepen.io/shshaw/pen/XbxvNj</metadata>
<path stroke="#000000" d="M0 0h2M17 0h1M0 1h1M0 2h1M2 2h1M16 2h1M0 3h1M0 4h1M0 5h1M0 6h1M2 6h1M16 6h1M0 7h2M17 7h1M0 8h18M8 9h3M9 10h1M7 11h1M9 11h1M11 11h1M9 12h1M9 13h1M9 14h1M7 15h1M9 15h1M11 15h1M8 16h3M0 17h18" />
<path stroke="#01404f" d="M2 0h15M1 1h1M3 1h13M17 1h1M1 2h1M3 2h13M17 2h1M1 3h17M1 4h17M1 5h1M3 5h13M17 5h1M1 6h1M3 6h13M17 6h1M2 7h15M0 9h8M11 9h7M0 10h7M8 10h1M10 10h1M12 10h6M0 11h7M8 11h1M10 11h1M12 11h6M0 12h9M10 12h8M0 13h9M10 13h8M0 14h7M8 14h1M10 14h1M12 14h6M0 15h7M8 15h1M10 15h1M12 15h6M0 16h8M11 16h7" />
<path stroke="#007d8c" d="M2 1h1M16 1h1M2 5h1M16 5h1M7 10h1M11 10h1M7 14h1M11 14h1" />
</svg>