<svg xmlns="http://www.w3.org/2000/svg" viewBox="0 -0.5 32 32" shape-rendering="crispEdges">
<metadata>Made with Pixels to Svg https://codepen.io/shshaw/pen/XbxvNj</metadata>
<path stroke="#000000" d="M13 3h7M11 4h2M20 4h2M10 5h1M22 5h1M9 6h1M23 6h1M8 7h1M24 7h1M8 8h1M24 8h1M8 9h1M24 9h1M8 10h1M24 10h1M8 11h1M24 11h1M8 12h1M24 12h1M8 13h1M24 13h1M8 14h1M24 14h1M8 15h1M24 15h1M8 16h1M24 16h1M8 17h1M24 17h1M8 18h1M24 18h1M8 19h1M24 19h1M8 20h1M24 20h1M9 21h1M23 21h1M10 22h1M22 22h1M10 23h1M22 23h1M10 24h1M22 24h1M11 25h1M21 25h1M11 26h1M21 26h1M11 27h1M21 27h1M9 28h2M22 28h1M8 29h1M23 29h1M7 30h1M24 30h1M6 31h1M25 31h1" />
<path stroke="#5c4537" d="M13 4h2M19 4h1M14 5h6M10 6h1M14 6h4M20 6h3M9 7h2M14 7h7M23 7h1M9 8h1M17 8h1M20 8h1M14 14h1M17 14h1M14 17h1M23 18h1M22 19h2M22 20h2M10 21h2M14 21h1M21 21h2M11 22h1M15 22h2M20 22h2M12 23h7M21 23h1M11 24h1M21 24h1M12 25h1M14 25h1M20 25h1M19 26h1M12 27h1M19 28h1M13 29h6M14 30h3" />
<path stroke="#342217" d="M15 4h4M21 7h2M21 8h3M23 9h1" />
<path stroke="#8c7c6d" d="M11 5h3M20 5h2M11 6h3M18 6h2M18 8h2" />
<path stroke="#2a180e" d="M11 7h3M10 8h1M14 8h3M9 9h1M17 9h6M9 10h1M23 10h1M23 11h1M23 12h1M23 13h1M23 14h1" />
<path stroke="#43200c" d="M11 8h3M10 9h1M14 9h3M10 10h1M17 10h6M9 11h1M22 11h1M9 12h1M22 12h1M9 13h1M22 13h1M9 14h1M22 14h1M9 15h1M23 15h1M9 16h1M23 16h1M9 17h1M23 17h1M12 26h1M20 26h1M13 27h1M19 27h1M13 28h6" />
<path stroke="#f1c4ae" d="M11 9h3M11 10h6M10 11h12M10 12h12M10 13h12M16 15h1M21 17h1M10 18h4M18 18h4M10 19h4M19 19h3M11 20h2M20 20h1M18 22h1M14 27h4" />
<path stroke="#b1856d" d="M10 14h1M15 14h2M15 15h1M22 16h1M10 17h1M22 17h1M9 18h1M14 18h1M22 18h1M9 19h1M14 19h1M18 19h1M9 20h2M13 20h1M19 20h1M21 20h1M12 21h2M19 21h2M12 22h3M17 22h1M19 22h1M11 23h1M19 23h2M12 24h2M19 24h2M13 25h1M18 25h2M13 26h6M18 27h1M20 27h1M11 28h2M20 28h1M11 29h2M19 29h3M10 30h4M17 30h5M10 31h12" />
<path stroke="#573323" d="M11 14h1M13 14h1M21 14h1M10 15h1M14 15h1M22 15h1" />
<path stroke="#532d20" d="M12 14h1M18 14h3M11 15h3M17 15h5M10 16h1M14 16h1" />
<path stroke="#b3b3b3" d="M11 16h1M13 16h1M18 16h1M20 16h1" />
<path stroke="#212121" d="M12 16h1M19 16h1" />
<path stroke="#d9a098" d="M15 16h2M15 17h2M16 18h1M15 19h2M15 20h2M18 21h1" />
<path stroke="#a97765" d="M17 16h1M21 16h1M11 17h3M18 17h3" />
<path stroke="#895549" d="M17 17h1M15 18h1M17 18h1M17 19h1M14 20h1M17 20h2M15 21h3" />
<path stroke="#b1615f" d="M14 24h1M16 24h1M18 24h1" />
<path stroke="#bc686c" d="M15 24h1" />
<path stroke="#af545c" d="M17 24h1" />
<path stroke="#6d2e29" d="M15 25h3" />
<path stroke="#1e2936" d="M21 28h1M10 29h1M22 29h1M9 30h1M22 30h1M9 31h1M22 31h1" />
<path stroke="#0e354b" d="M9 29h1M8 30h1M23 30h1M7 31h2M23 31h2" />
</svg>